<svg xmlns="http://www.w3.org/2000/svg" width="37" height="24.667" viewBox="0 0 37 24.667">
  <path id="Path_181" data-name="Path 181" d="M36.788,92.8a2.5,2.5,0,0,0-.916-1.05,2.407,2.407,0,0,0-1.34-.4h-14.8a2.339,2.339,0,0,0-1.85.848L.616,111.94A2.371,2.371,0,0,0,.028,113.2a2.461,2.461,0,0,0,.183,1.378,2.5,2.5,0,0,0,.915,1.05,2.408,2.408,0,0,0,1.34.4h14.8a2.338,2.338,0,0,0,1.85-.848L36.384,95.443a2.373,2.373,0,0,0,.587-1.262A2.458,2.458,0,0,0,36.788,92.8ZM17.267,113.558H2.466l6.475-7.4h14.8Z" transform="translate(0 -91.358)" fill="#558b2f"/>
</svg>
