<svg xmlns="http://www.w3.org/2000/svg" xmlns:xlink="http://www.w3.org/1999/xlink" width="16" height="16" viewBox="0 0 16 16">
  <defs>
    <clipPath id="clip-path">
      <rect width="16" height="16" fill="none"/>
    </clipPath>
  </defs>
  <g id="Folder" clip-path="url(#clip-path)">
    <path id="Path_178" data-name="Path 178" d="M0,10.926V.984A1.022,1.022,0,0,1,.311.259.984.984,0,0,1,.984,0H6.731a.588.588,0,0,1,.414.155.7.7,0,0,1,.311.362l.518,1.45h6.99a1.022,1.022,0,0,1,.725.311A.94.94,0,0,1,16,3v7.974a1.022,1.022,0,0,1-.311.725.94.94,0,0,1-.725.311H.984A1.022,1.022,0,0,1,.259,11.7,1.4,1.4,0,0,1,0,10.926Z" transform="translate(0 2)" fill="rgba(249,249,249,0.99)"/>
    <rect id="Rectangle_1447" data-name="Rectangle 1447" width="16" height="16" fill="none"/>
  </g>
</svg>
